# xmcd
#
# Track frame offsets: 
#        150
#        15796
#        29065
#        48917
#        83976
#        97178
#        111241
#        135109
#        150581
#        167986
#        193789
#        217840
#        236471
#
# Disc length: 3517 seconds
#
# Revision: 0
# Processed by: cddbd v1.5.2PL0 Copyright (c) Steve Scherf et al.
# Submitted via: ExactAudioCopyFreeDBPlugin 1.0
#
DISCID=a00dbb0d
DTITLE=Bluebone - Bluebone
DYEAR=2000
DGENRE=Blues
TTITLE0=She Took A Taxi
TTITLE1=Matchbox
TTITLE2=Y3X
TTITLE3=When Blue Was Just A Color
TTITLE4=Hey Baby
TTITLE5=Life's Twisted Tree
TTITLE6=Faster Than You Know
TTITLE7=Girl Of My Dreams
TTITLE8=Bad Dog
TTITLE9=Exit Zero
TTITLE10=Freudian Slip
TTITLE11=Tough Break
TTITLE12=Big Love
EXTD=
EXTT0=
EXTT1=
EXTT2=
EXTT3=
EXTT4=
EXTT5=
EXTT6=
EXTT7=
EXTT8=
EXTT9=
EXTT10=
EXTT11=
EXTT12=
PLAYORDER=
